<mxfile host="app.diagrams.net" agent="Mozilla/5.0 (Windows NT 10.0; Win64; x64) AppleWebKit/537.36 (KHTML, like Gecko) Chrome/130.0.0.0 Safari/537.36" version="24.8.4">
  <diagram name="Page-1" id="LkYUbReQHexrSPq1Mvwi">
    <mxGraphModel dx="1050" dy="565" grid="1" gridSize="10" guides="1" tooltips="1" connect="1" arrows="1" fold="1" page="1" pageScale="1" pageWidth="850" pageHeight="1100" math="0" shadow="0">
      <root>
        <mxCell id="0" />
        <mxCell id="1" parent="0" />
        <mxCell id="hy-Vo6hejlj0qwngXtw7-14" style="edgeStyle=orthogonalEdgeStyle;rounded=0;orthogonalLoop=1;jettySize=auto;html=1;exitX=1;exitY=0.5;exitDx=0;exitDy=0;entryX=0;entryY=0.5;entryDx=0;entryDy=0;" edge="1" parent="1" source="hy-Vo6hejlj0qwngXtw7-5" target="hy-Vo6hejlj0qwngXtw7-9">
          <mxGeometry relative="1" as="geometry" />
        </mxCell>
        <mxCell id="hy-Vo6hejlj0qwngXtw7-5" value="PSS" style="rounded=0;whiteSpace=wrap;html=1;" vertex="1" parent="1">
          <mxGeometry x="10" y="60" width="120" height="60" as="geometry" />
        </mxCell>
        <mxCell id="hy-Vo6hejlj0qwngXtw7-6" value="XTI" style="rounded=0;whiteSpace=wrap;html=1;labelPosition=center;verticalLabelPosition=top;align=center;verticalAlign=bottom;" vertex="1" parent="1">
          <mxGeometry x="430" y="40" width="410" height="210" as="geometry" />
        </mxCell>
        <mxCell id="hy-Vo6hejlj0qwngXtw7-7" value="RBP" style="rounded=0;whiteSpace=wrap;html=1;labelPosition=center;verticalLabelPosition=top;align=center;verticalAlign=bottom;" vertex="1" parent="1">
          <mxGeometry x="50" y="350" width="120" height="60" as="geometry" />
        </mxCell>
        <mxCell id="hy-Vo6hejlj0qwngXtw7-8" value="RA" style="rounded=0;whiteSpace=wrap;html=1;labelPosition=center;verticalLabelPosition=top;align=center;verticalAlign=bottom;" vertex="1" parent="1">
          <mxGeometry x="610" y="370" width="120" height="60" as="geometry" />
        </mxCell>
        <mxCell id="hy-Vo6hejlj0qwngXtw7-15" style="edgeStyle=orthogonalEdgeStyle;rounded=0;orthogonalLoop=1;jettySize=auto;html=1;entryX=0;entryY=0.5;entryDx=0;entryDy=0;" edge="1" parent="1" source="hy-Vo6hejlj0qwngXtw7-9" target="hy-Vo6hejlj0qwngXtw7-10">
          <mxGeometry relative="1" as="geometry" />
        </mxCell>
        <mxCell id="hy-Vo6hejlj0qwngXtw7-9" value="JAVA Reconciliation" style="shape=process;whiteSpace=wrap;html=1;backgroundOutline=1;" vertex="1" parent="1">
          <mxGeometry x="230" y="60" width="120" height="60" as="geometry" />
        </mxCell>
        <mxCell id="hy-Vo6hejlj0qwngXtw7-16" style="edgeStyle=orthogonalEdgeStyle;rounded=0;orthogonalLoop=1;jettySize=auto;html=1;exitX=0.5;exitY=1;exitDx=0;exitDy=0;" edge="1" parent="1" source="hy-Vo6hejlj0qwngXtw7-10" target="hy-Vo6hejlj0qwngXtw7-12">
          <mxGeometry relative="1" as="geometry" />
        </mxCell>
        <mxCell id="hy-Vo6hejlj0qwngXtw7-18" style="edgeStyle=orthogonalEdgeStyle;rounded=0;orthogonalLoop=1;jettySize=auto;html=1;exitX=0.75;exitY=1;exitDx=0;exitDy=0;entryX=0.5;entryY=0;entryDx=0;entryDy=0;" edge="1" parent="1" source="hy-Vo6hejlj0qwngXtw7-10" target="hy-Vo6hejlj0qwngXtw7-13">
          <mxGeometry relative="1" as="geometry" />
        </mxCell>
        <mxCell id="hy-Vo6hejlj0qwngXtw7-10" value="&lt;font style=&quot;font-size: 10px;&quot;&gt;&lt;span style=&quot;font-size: 12px;&quot;&gt;Table&amp;nbsp;&lt;/span&gt;&lt;/font&gt;&lt;div&gt;&lt;font style=&quot;font-size: 10px;&quot;&gt;XTI_CLAIMDESCRIPTION_LANG&lt;/font&gt;&amp;nbsp;&lt;/div&gt;" style="rounded=1;whiteSpace=wrap;html=1;" vertex="1" parent="1">
          <mxGeometry x="540" y="60" width="160" height="60" as="geometry" />
        </mxCell>
        <mxCell id="hy-Vo6hejlj0qwngXtw7-12" value="&lt;span style=&quot;font-family: &amp;quot;Aptos Narrow&amp;quot;, sans-serif;&quot;&gt;&lt;font style=&quot;font-size: 10px;&quot;&gt;View&lt;/font&gt;&lt;/span&gt;&lt;div&gt;&lt;span style=&quot;font-family: &amp;quot;Aptos Narrow&amp;quot;, sans-serif;&quot;&gt;&lt;font style=&quot;font-size: 10px;&quot;&gt;VW_RBPRECON_CLAIMDESC_LANG&lt;/font&gt;&lt;/span&gt;&lt;/div&gt;" style="rounded=1;whiteSpace=wrap;html=1;" vertex="1" parent="1">
          <mxGeometry x="450" y="170" width="180" height="60" as="geometry" />
        </mxCell>
        <mxCell id="hy-Vo6hejlj0qwngXtw7-13" value="&lt;span style=&quot;font-family: &amp;quot;Aptos Narrow&amp;quot;, sans-serif;&quot;&gt;&lt;font style=&quot;font-size: 10px;&quot;&gt;View&lt;/font&gt;&lt;/span&gt;&lt;div&gt;&lt;span style=&quot;font-family: &amp;quot;Aptos Narrow&amp;quot;, sans-serif;&quot;&gt;&lt;font style=&quot;font-size: 10px;&quot;&gt;VW_RBPRECON_CLAIMDESC_LANG&lt;/font&gt;&lt;/span&gt;&lt;/div&gt;" style="rounded=1;whiteSpace=wrap;html=1;" vertex="1" parent="1">
          <mxGeometry x="650" y="170" width="180" height="60" as="geometry" />
        </mxCell>
      </root>
    </mxGraphModel>
  </diagram>
</mxfile>
